<svg xmlns="http://www.w3.org/2000/svg" xmlns:xlink="http://www.w3.org/1999/xlink" version="1.1" x="0px" y="0px" viewBox="0 0 226 199.3" enable-background="new 0 0 226 199.3" xml:space="preserve"><path fill="none" d="M107.7,83.8c-3.3,0.7-4.6,6.2-5,9.4c-0.7,5-0.4,11.4,0.7,16.7c0.6,2.9,1.5,2.9,1.9,2.9c0.2,0,0.4,0,0.6-0.1  c5.8-1.2,6.6-9.5,6.7-13l0-15.1c-1-0.6-2-1-3.2-1C108.8,83.6,108.3,83.7,107.7,83.8z"></path><path fill="#ffffff" d="M112.9,0L0,72.8v126.5h226V72.8L112.9,0z M13,96.6L40.6,114l18,11.4l3.5,2.2L13,177.1V96.6z M22.1,186.3  l51.3-51.5l32.6,20.8l7,4.5l7.2-4.5l32.7-20.8l50.8,51.5H22.1z M213,177.3l-48.9-49.5L213,96.6V177.3z M113.3,144.7l-47.4-30.2  l-0.1-0.1c-6.1-30.7,10.5-57.3,39.8-63.6c3.8-0.8,7.5-1.2,10.9-1.2c16.1,0,27.2,8.9,30.5,24.4c2.4,11.1,0.4,18.6-1.6,23  c-2.4,5.1-6.3,8.7-10.4,9.5c-0.6,0.1-1.1,0.2-1.5,0.2c-1.1,0-1.6-0.3-1.8-1.5c-0.2-1-0.3-2.1-0.3-3.3l-0.1-30.8l0-0.4  c0-0.1,0-0.2,0-0.3c0-0.3,0-0.7-0.1-1.1c-0.4-1.8-2.3-3-4.3-2.6l-9.1,2c-1.8,0.4-2.7,1.4-3.2,2.4c-1.7-0.8-4.1-1.7-7.1-1.7  c-1.2,0-2.5,0.1-3.8,0.4c-7.3,1.6-13.3,7.2-16.9,15.9c-3.4,8.2-4.2,18.4-2.2,27.9c3,14,10.9,16.1,15.3,16.1c1.1,0,2.3-0.1,3.5-0.4  c7.6-1.6,11.6-6.7,13.8-10.7c1.8,2.5,4.9,5,10.4,5c1.5,0,3-0.2,4.7-0.5c10.1-2.2,19.2-8.5,25.1-17.5c4.6-7.1,9.4-19,5.8-35.7  c-4.7-22-21.4-35.1-44.7-35.1c-4.9,0-10,0.6-15.3,1.7C84.8,40.3,69.1,50.9,59.1,66c-7.4,11.1-11.2,23.3-11.2,37.3L13,79.9l0,0  l99.9-64.4L213,80.8L113.3,144.7z M112.6,84.6l0,15.1c-0.1,3.5-0.8,11.8-6.7,13c-0.2,0-0.4,0.1-0.6,0.1c-0.4,0-1.3,0-1.9-2.9  c-1.1-5.3-1.4-11.7-0.7-16.7c0.4-3.2,1.7-8.7,5-9.4c0.6-0.1,1.1-0.2,1.6-0.2C110.6,83.6,111.6,84,112.6,84.6z"></path></svg>