<svg xmlns="http://www.w3.org/2000/svg" xmlns:xlink="http://www.w3.org/1999/xlink" xmlns:sketch="http://www.bohemiancoding.com/sketch/ns" viewBox="0 0 100 100" version="1.1" x="0px" y="0px"><title>Slice 1</title><description>Created with Sketch (http://www.bohemiancoding.com/sketch)</description><g stroke="none" stroke-width="1" fill="none" fill-rule="evenodd"><path d="M50,0.003 C77.572,0.003 100,22.431 100,50 C100,77.569 77.572,99.997 50,99.997 C22.43,99.997 0,77.569 0,50 C0,22.431 22.43,0.003 50,0.003 Z M63.7008557,30.3837761 L50.0001812,44.0844506 L36.2995066,30.3823258 C34.6665057,28.7493249 32.0183178,28.7478747 30.3838666,30.3823258 C28.7508657,32.0153267 28.7508657,34.664965 30.3838666,36.2979659 L44.0845411,50.0000907 L30.3824163,63.7007652 C28.7494154,65.3352164 28.7494154,67.9834043 30.3824163,69.6164052 C32.0183178,71.2523067 34.6650555,71.2508564 36.2995066,69.6178555 L50.0001812,55.9157307 L63.7008557,69.6164052 C65.3338566,71.2494062 67.9834948,71.2508564 69.6164957,69.6178555 C71.2523972,67.9819541 71.2494966,65.3337661 69.6164957,63.7007652 L55.9158212,50.0000907 L69.6164957,36.2994161 C71.2494966,34.6678655 71.2523972,32.0182273 69.6164957,30.3837761 C67.9834948,28.7493249 65.3338566,28.7507752 63.7008557,30.3837761 Z M63.7008557,30.3837761" fill="#000000"></path></g></svg>