<svg id="Layer_1" data-name="Layer 1" xmlns="http://www.w3.org/2000/svg" viewBox="0 0 280 97.77"><defs><style>.cls-1{fill:#0195c8;}.cls-2{fill:#0295c8;}</style></defs><title>azure</title><polygon class="cls-1" points="32.84 46.89 0 46.89 0 17.6 32.84 11.24 32.84 46.89"/><polygon class="cls-1" points="88.9 46.89 36.24 46.89 36.24 10.8 88.9 0 88.9 46.89"/><polygon class="cls-1" points="88.9 51.03 36.24 51.03 36.24 87.12 88.9 97.77 88.9 51.03"/><polygon class="cls-1" points="32.84 51.03 0 51.03 0 80.02 32.84 86.38 32.84 51.03"/><path class="cls-2" d="M139.93,112.73c-2.22.59-3-.3-3.4-1.77-.74-2.22-1-5.18-2.81-6.36s-4.59-.3-7-.3c-6.06,0-6.21,0-8.58,6.21-.74,1.92-1.63,2.81-3.85,2.51-1.92-.15-1.18-1-.74-1.92,3-7,5.92-13.76,8.73-20.71l1.77-4c1-2.51,2.22-3.11,4.88-2.51.89.15,1,.74,1.33,1.48,3.7,8.73,7.25,17.31,11.09,26C142.44,113.92,140.22,112.59,139.93,112.73ZM127.35,87.29c-1.77,4.59-3.25,8.43-4.88,12.28-.3.89-.44,1.48.74,1.48h8c.89,0,1.18-.3.89-1.18C130.61,95.87,129.13,91.88,127.35,87.29Z" transform="translate(0 -27.68)"/><path class="cls-2" d="M215.07,103.56h-6.66c-1.63,0-2.07.44-1.63,2.07a6.16,6.16,0,0,0,5.32,4.73c3.25.59,5.77-.3,7-2.66.74-1.48,1.77-1.33,3-1.33.89,0,1.18.3.89,1.33a8.8,8.8,0,0,1-4.73,5c-8.28,3.4-16-2.22-15.38-10.95.44-6.06,4.88-10.35,10.8-10.21,5.62,0,9.76,4.44,10.06,10.5,0,1.33-.3,1.77-1.63,1.77A37,37,0,0,0,215.07,103.56Zm-2.22-3h5.32c1.33.15,1.48-.59,1.18-1.63a6.72,6.72,0,0,0-6.21-4.59,6.52,6.52,0,0,0-6.36,4.73c-.3,1-.3,1.63,1,1.48C209.45,100.46,211.22,100.61,212.85,100.61Z" transform="translate(0 -27.68)"/><path class="cls-2" d="M116.85,44.1V68.66c0,.74-.15,1.18-1,1.18s-.89-.44-.89-1v-26c0-.74-.59-1.77.89-1.92a2.13,2.13,0,0,1,2.51,1.33c3.55,8,7.1,15.83,10.8,23.67.3.59.59,1,1,1.92,1.48-3.25,2.81-6.21,4.14-9.32l7.1-16c.3-.74.44-1.77,1.77-1.77s1.77.15,1.77,1.63V68.06c0,.74.3,1.63-.89,1.63s-.89-1-.89-1.63V43.81c-.89.44-.89,1.18-1.18,1.77-3.25,7.4-6.51,14.64-9.91,22-.44.89-.44,2.22-1.92,2.22s-1.48-1.33-1.92-2.22c-3.25-7.1-6.36-14.05-9.61-21.15-.44-.89-.74-1.63-1.18-2.37Z" transform="translate(0 -27.68)"/><path class="cls-2" d="M180.45,109.92c-3,3.25-6.06,4-9.61,3.25s-5.32-2.37-5.62-5.92c-.3-4.73-.15-9.47-.15-14.2,0-1.77,1.33-1,2.22-1.18,1.18-.15,1.63.3,1.63,1.48V104.6c0,4,1.33,5.62,4.44,5.92,3.7.15,6.8-2.22,7-5.92s.15-7.25,0-10.8c0-1.33.15-2.07,1.77-2.07s2.07.59,1.92,2.22c-.15,5.47,0,10.95-.15,16.27,0,.89,1,2.51-1.18,2.81S180.31,112.14,180.45,109.92Z" transform="translate(0 -27.68)"/><path class="cls-2" d="M147.17,110.07h12.28c1.18,0,2.37-.3,2.22,1.63s-1.33,1.33-2.22,1.33H144.66c-.74,0-1.92.44-2.22-.59a2.84,2.84,0,0,1,.74-3c3.4-3.7,6.66-7.4,9.91-11.24.89-1,1.63-1.92,2.81-3.11-2.51-.59-4.73-.3-7-.3H145.1c-1,0-1.63-.15-1.63-1.48s.59-1.48,1.63-1.48h13.76c.74,0,1.77-.44,2.22.59a2.57,2.57,0,0,1-.74,2.66c-3.7,4.14-7.4,8.43-11.09,12.57C148.65,108.3,148.21,108.89,147.17,110.07Z" transform="translate(0 -27.68)"/><path class="cls-2" d="M262.84,59.93c0-2.66-.15-5.18,0-7.84.15-1.63-.44-2.22-2.07-2.07-.59,0-1.77.44-1.92-.59s1.18-.74,1.77-.74c2.51.44,2.07-1.33,2.07-2.81,0-3.85,1.63-5.62,5.18-5.47.74,0,1.63,0,1.77.74,0,1-1,.59-1.63.59-2.81.15-4.88,4-3.25,6.51.3.59.89.44,1.48.44H272c1.33,0,1.63-.44,1.48-1.63V43.21c0-.44.15-.89.74-.89s1,.3,1,.89a26.08,26.08,0,0,1,0,3.4c-.15,1.63.3,2.22,2.07,2.07.89,0,2.66-.74,2.66.59s-1.77.59-2.66.59c-1.33,0-2.07.3-2.07,1.92.15,4.44,0,8.73,0,13.16,0,2.22,1,3.4,3.25,3.4.59,0,1.48-.15,1.33.74s-.89.59-1.48.59c-3.11.15-4.88-1.48-5-4.59V51.79c0-1.33-.44-1.92-1.77-1.77-2.22.3-5.18-.89-6.66.44s-.3,4.14-.44,6.21V67.77c0,.74.44,1.92-.89,1.92s-.89-1.18-.89-1.92C262.69,65.25,262.84,62.59,262.84,59.93Z" transform="translate(0 -27.68)"/><path class="cls-2" d="M225.12,70.43A12.08,12.08,0,0,1,218.91,69a6,6,0,0,1-3.11-4.59c-.15-.44-.3-1.18.44-1.33s.89.15,1.18.74c2.37,4.88,6.36,6.51,11.39,4.73,1.77-.59,3.11-1.63,3.11-3.85s-1.18-3.25-3.11-3.85c-2.22-.59-4.44-1-6.66-1.48-4.14-1-6.06-3-5.92-5.92s2.66-4.73,6.66-5a14.32,14.32,0,0,1,5.62.59,5.93,5.93,0,0,1,4.14,4.73c.15.44.3,1-.44,1.18s-1.18.15-1.33-.59a4.44,4.44,0,0,0-3.25-4,11.17,11.17,0,0,0-7,0c-1.63.59-2.81,1.63-2.81,3.55a3.2,3.2,0,0,0,2.66,3.25c3.11.89,6.21,1.48,9.32,2.37a5.06,5.06,0,0,1,3.7,4.73c.15,2.22-1.18,4.14-3.55,5.18l-1.33.44A16.16,16.16,0,0,1,225.12,70.43Z" transform="translate(0 -27.68)"/><path class="cls-2" d="M193.62,95.72c1.92-2.51,3.85-4.14,6.51-4.44.89-.15,1.92-.3,1.77,1-.15.89.74,2.22-1.18,2.66-5.18.89-7,3.11-7,8.28,0,2.66-.15,5.18,0,7.84,0,1.48-.44,1.77-1.77,1.77s-2.07-.3-2.07-1.92c.15-5.77,0-11.69,0-17.45,0-1.33.3-1.92,1.77-1.92s1.77.59,1.77,1.92A6.11,6.11,0,0,0,193.62,95.72Z" transform="translate(0 -27.68)"/><path class="cls-2" d="M247,48.24c6.06,0,10.35,4.59,10.35,11.09s-4.29,11.09-10.5,10.95-10.35-4.73-10.35-11.09S240.8,48.24,247,48.24Zm8.43,11.09a9.81,9.81,0,0,0-3-7.54A8.3,8.3,0,0,0,243,50.46c-4,2.07-5,5.62-4.88,9.91a8.83,8.83,0,0,0,5.62,8.14C250.12,70.58,255.45,66.29,255.45,59.34Z" transform="translate(0 -27.68)"/><path class="cls-2" d="M201.75,70.43c-6.06,0-10.35-4.59-10.35-11.09s4.29-11.09,10.35-11.09,10.35,4.59,10.35,11.09S207.82,70.43,201.75,70.43Zm-8.58-11.09A9.8,9.8,0,0,0,196,66.58a8.34,8.34,0,0,0,9.47,1.48c4-1.92,5.18-5.47,5-9.61s-2.37-7.4-5.62-8.58C198.65,47.95,193.17,52.39,193.17,59.34Z" transform="translate(0 -27.68)"/><path class="cls-2" d="M158.12,59.49c.15,6.06,3.4,9.61,9,9.47,3.55-.15,5.92-1.77,7.1-5.18.3-.74.44-1.63,1.48-1.18s.3,1.18,0,1.77c-2.22,6.51-11.83,8.28-16.57,3.11-3.4-3.55-3.85-10.21-1.18-14.64,2.37-3.85,7.4-5.62,12.42-4.14a7,7,0,0,1,5.32,5.18c.15.44.59,1-.3,1.33-.59.15-.89,0-1.33-.59-2.37-4.29-5.62-5.77-9.91-4.59C160.49,51.05,158.12,54.6,158.12,59.49Z" transform="translate(0 -27.68)"/><path class="cls-2" d="M182.23,53a10,10,0,0,1,7.4-4.29c.59,0,1.33-.3,1.33.74s-.74.59-1.18.74c-5.47,1-7.54,3.55-7.54,9.17v9c0,.59.3,1.48-.89,1.48s-.89-.89-.89-1.48V50.17c0-.59-.15-1.48.89-1.48s.74.89.89,1.48C182.23,51.05,182.23,51.79,182.23,53Z" transform="translate(0 -27.68)"/><path class="cls-2" d="M150.43,59V50.31c0-.74-.15-1.63,1-1.63s.74,1,.74,1.63v17.9c0,.59.44,1.48-.74,1.63s-1-.89-1-1.63Z" transform="translate(0 -27.68)"/><path class="cls-2" d="M152.35,42.92c-.3.74.59,2.07-1,2.07-1.33,0-.89-1.18-.89-1.92s-.59-2.07.89-2.07S151.91,42.18,152.35,42.92Z" transform="translate(0 -27.68)"/></svg>